<svg xmlns="http://www.w3.org/2000/svg" version="1.1" xmlns:xlink="http://www.w3.org/1999/xlink" xmlns:svgjs="http://svgjs.dev/svgjs" width="1500" height="1500" viewBox="0 0 1500 1500"><g transform="matrix(1,0,0,1,-0.7499999999998863,-0.7487996803656642)"><svg viewBox="0 0 280 280" data-background-color="#ffffff" preserveAspectRatio="xMidYMid meet" height="1500" width="1500" xmlns="http://www.w3.org/2000/svg" xmlns:xlink="http://www.w3.org/1999/xlink"><g id="tight-bounds" transform="matrix(1,0,0,1,0.13999999999998636,0.14010492279388131)"><svg viewBox="0 0 279.72 279.72" height="279.72" width="279.72"><g><svg viewBox="0 0 279.72 279.72" height="279.72" width="279.72"><g><svg viewBox="0 0 279.72 279.72" height="279.72" width="279.72"><g id="textblocktransform"><svg viewBox="0 0 279.72 279.72" height="279.72" width="279.72" id="textblock"><g><svg viewBox="0 0 279.72 279.72" height="279.72" width="279.72"><g transform="matrix(1,0,0,1,57.446704652707865,57.446704652707865)"><svg viewBox="0 0 164.8265906945843 164.8265906945843" height="164.8265906945843" width="164.8265906945843"><g><circle r="82" cx="82.41329534729215" cy="82.41329534729215" fill="#77d4fc" data-fill-palette-color="accent"></circle><svg xmlns="http://www.w3.org/2000/svg" xmlns:xlink="http://www.w3.org/1999/xlink" xmlns:a="http://ns.adobe.com/AdobeSVGViewerExtensions/3.0/" version="1.1" x="24.723988604187646" y="24.72398860418764" viewBox="0 0 90.979 66.16" overflow="visible" enable-background="new -4.511 -16.92 100 100" xml:space="preserve" height="115.378613486209" width="115.378613486209" class="icon-xg-0" data-fill-palette-color="quaternary" id="xg-0"><path d="M0 0v66.16h90.979V0H0zM83.627 58.809H7.352V7.352h76.275V58.809z" fill="#ffffff" data-fill-palette-color="quaternary"></path><rect x="49.09" y="14.702" width="26.949" height="22.653" fill="#ffffff" data-fill-palette-color="quaternary"></rect><rect x="14.933" y="14.702" width="26.188" height="37.355" fill="#ffffff" data-fill-palette-color="quaternary"></rect><rect x="49.09" y="44.106" width="26.949" height="7.951" fill="#ffffff" data-fill-palette-color="quaternary"></rect></svg></g></svg></g><g><path d="M33.947 93.986l1.102 1.127-2.187 6.333-2.899-1.001 1.663 4.796c0.028 0.507-0.072 1.092-0.302 1.755v0c-0.661 1.914-1.618 3.135-2.871 3.661-1.253 0.527-2.546 0.56-3.878 0.1v0c-0.801-0.276-1.492-0.841-2.073-1.692-0.577-0.843-1.025-1.919-1.343-3.226v0l2.601-7.535-2.139-0.739c-1.445-0.499-2.601-0.467-3.467 0.095-0.864 0.556-1.527 1.503-1.989 2.842v0c-0.475 1.376-0.223 3.354 0.755 5.932v0l-1.61 0.557-2.145-6.107c0.127-0.957 0.406-2.058 0.836-3.303v0c0.698-2.021 1.733-3.417 3.106-4.189 1.371-0.766 3.004-0.822 4.899-0.168v0l9.731 3.36zM28.847 104.954c0.469-1.357 0.349-3.03-0.357-5.017v0l-3.369-1.163-2.038 5.902c0.257 0.411 0.543 0.74 0.856 0.989 0.316 0.242 0.686 0.436 1.111 0.583v0c0.82 0.283 1.596 0.316 2.329 0.1 0.735-0.222 1.224-0.687 1.468-1.394z" fill="#010c80" data-fill-palette-color="primary"></path><path d="M42.267 50.975c0.501-0.59 1.104-0.973 1.807-1.147 0.704-0.175 1.446-0.144 2.227 0.092v0l0.729 3.666-0.867 1.022c-0.508-0.301-0.937-0.44-1.288-0.416-0.345 0.028-0.655 0.204-0.929 0.527v0c-0.334 0.394-0.584 0.898-0.75 1.512-0.166 0.615-0.201 1.444-0.106 2.488v0l8.022 6.81 4.349-2.793 0.627 1.456-7.517 8.855-0.84-0.713 0.16-3.993-7.614-6.463-3.436 1.211-0.833-0.707 1.643-6.522 4.014 1.975-0.468-5.216c0.175-0.503 0.521-1.059 1.039-1.669v0z" fill="#010c80" data-fill-palette-color="primary"></path><path d="M88.981 36.362l-1.701 4.213c-0.371 0.432-0.896 0.841-1.574 1.228v0c-1.696 0.966-3.19 1.226-4.48 0.78-1.296-0.443-2.472-1.593-3.53-3.45v0l-5.099-8.954-3.313 1.886-0.717-1.259 1.966-10.088 1.165-0.663 3.856 6.772 5.521-3.144 0.717 1.259-5.521 3.144 5.311 9.325c0.94 1.65 2.206 2.022 3.8 1.115v0c0.431-0.246 0.793-0.573 1.085-0.983 0.298-0.413 0.61-1.022 0.937-1.825v0z" fill="#010c80" data-fill-palette-color="primary"></path><path d="M124.338 26.992l-0.411 1.522-9.653 1.949-0.216-1.071 2.595-3.046-2.04-10.1-3.516-1.518-0.217-1.07 5.469-3.414 1.313-0.265 3.317 16.426zM113.359 0.052c0.688-0.139 1.31-0.001 1.866 0.413 0.55 0.416 0.902 1.006 1.056 1.772v0c0.106 0.525 0.045 1.058-0.184 1.597-0.222 0.538-0.548 0.995-0.978 1.372-0.432 0.371-0.878 0.603-1.339 0.696v0c-0.688 0.139-1.31 0.001-1.865-0.413-0.55-0.416-0.901-1.003-1.055-1.762v0c-0.107-0.532-0.047-1.067 0.182-1.607 0.222-0.538 0.549-0.992 0.981-1.362 0.43-0.377 0.876-0.612 1.336-0.706z" fill="#010c80" data-fill-palette-color="primary"></path><path d="M163.495 10.539c0.95 0.137 2.041 0.431 3.272 0.883 1.232 0.452 2.103 0.882 2.613 1.289v0l-0.775 5.375-1.327-0.191c-0.742-1.297-1.652-2.361-2.729-3.192-1.084-0.832-2.254-1.338-3.512-1.519v0c-1.068-0.154-1.945 0.204-2.632 1.074-0.682 0.878-1.155 2.237-1.421 4.078v0c-0.315 2.188-0.102 4.091 0.641 5.709 0.737 1.611 1.99 2.544 3.759 2.799v0c1.33 0.192 3.354-0.489 6.072-2.043v0l0.86 1.478-5.993 3.448c-0.958 0.056-2.088-0.01-3.392-0.198v0c-1.533-0.221-2.854-0.823-3.962-1.805-1.109-0.982-1.905-2.207-2.389-3.674-0.489-1.475-0.615-3.037-0.377-4.688v0c0.259-1.795 1.007-3.412 2.244-4.852 1.244-1.439 2.703-2.512 4.376-3.22 1.667-0.709 3.224-0.959 4.672-0.751z" fill="#010c80" data-fill-palette-color="primary"></path><path d="M201.975 43.422l-1.293 0.901-8.65-4.706 0.522-0.959 3.945-0.668 10.371-19.062-1.72-3.422 0.522-0.959 6.383 0.896 1.177 0.64-13.454 24.731z" fill="#010c80" data-fill-palette-color="primary"></path><path d="M237.332 71.106l-7.851-1.353c-0.771-0.571-1.597-1.346-2.477-2.325v0c-1.035-1.152-1.664-2.46-1.886-3.924-0.222-1.465-0.049-2.915 0.52-4.352 0.569-1.446 1.474-2.726 2.714-3.841v0c1.349-1.212 2.983-1.938 4.903-2.178 1.92-0.24 3.788-0.063 5.603 0.53 1.819 0.598 3.249 1.476 4.288 2.632v0c1.491 1.659 1.993 3.539 1.506 5.641-0.486 2.092-1.805 4.105-3.955 6.038v0l-8.727-9.708c-1.394 1.449-2.245 2.952-2.553 4.511-0.303 1.554 0.094 2.941 1.191 4.161v0c1.022 1.137 3.361 1.962 7.018 2.476v0zM239.565 56.751c-1.695-1.885-3.876-1.708-6.545 0.531v0l5.522 6.142c0.803-1.007 1.378-1.818 1.725-2.432 0.352-0.619 0.506-1.278 0.464-1.978-0.052-0.701-0.44-1.455-1.166-2.263z" fill="#010c80" data-fill-palette-color="primary"></path><path d="M254.226 107.066c0.614-0.229 1.054-0.782 1.319-1.658 0.26-0.874 0.492-2.155 0.696-3.842v0c0.167-1.369 0.34-2.486 0.518-3.351 0.176-0.871 0.463-1.664 0.861-2.377 0.398-0.714 0.937-1.198 1.619-1.453v0c0.794-0.296 1.767-0.282 2.92 0.044 1.151 0.319 2.215 0.851 3.191 1.594 0.981 0.736 1.628 1.522 1.941 2.359v0c0.377 1.011 0.689 2.233 0.935 3.667 0.244 1.428 0.322 2.497 0.234 3.209v0l-5.087 1.899-0.472-1.264c1.102-1.21 1.861-2.422 2.276-3.637 0.418-1.209 0.446-2.296 0.085-3.264v0c-0.255-0.682-0.644-1.165-1.167-1.45-0.521-0.279-1.057-0.315-1.609-0.11v0c-0.682 0.255-1.16 0.839-1.433 1.754-0.271 0.921-0.498 2.242-0.682 3.964v0c-0.158 1.337-0.315 2.428-0.473 3.271-0.167 0.839-0.441 1.599-0.824 2.278-0.386 0.688-0.92 1.159-1.602 1.414v0c-0.818 0.306-1.804 0.278-2.955-0.083-1.152-0.361-2.223-0.929-3.212-1.704-0.995-0.773-1.649-1.578-1.961-2.414v0c-0.403-1.079-0.755-2.41-1.057-3.993-0.301-1.583-0.416-2.752-0.345-3.506v0l5.087-1.9 0.469 1.256c-1.075 1.284-1.796 2.596-2.165 3.935-0.36 1.343-0.339 2.553 0.063 3.632v0c0.271 0.725 0.677 1.245 1.218 1.558 0.547 0.311 1.084 0.369 1.612 0.172z" fill="#010c80" data-fill-palette-color="primary"></path><path d="M24.837 212.326l-1.749-0.129-4.527-10.997 1.12-0.461 4.078 2.293 9.556-3.934-5.883-14.293-10.603 4.365 0.261 4.337-1.749-0.128-4.527-10.997 1.12-0.461 4.079 2.293 21.93-9.028-0.283-4.285 1.749 0.128 4.531 11.006-1.12 0.461-4.097-2.339-9.667 3.98 5.884 14.292 10.75-4.425-0.283-4.285 1.749 0.128 4.531 11.007-1.12 0.461-4.098-2.339-21.893 9.013z" fill="#010c80" data-fill-palette-color="primary"></path><path d="M47.721 241.266l-1.701 0.428-4.85-5.636 2.581-2.221-5.529-1.083c-0.492-0.257-0.995-0.685-1.509-1.281v0c-1.463-1.701-2.099-3.297-1.908-4.789 0.201-1.491 0.893-2.746 2.078-3.766v0c0.712-0.613 1.635-0.962 2.767-1.045 1.137-0.079 2.419 0.092 3.847 0.514v0l5.77 6.704 1.903-1.638c1.284-1.105 1.899-2.228 1.844-3.368-0.05-1.144-0.587-2.311-1.611-3.499v0c-1.053-1.224-3.089-2.088-6.105-2.591v0l0.364-1.859 7.058 1.353c0.838 0.659 1.733 1.542 2.687 2.651v0c1.55 1.801 2.311 3.573 2.283 5.317-0.032 1.748-0.889 3.345-2.569 4.791v0l-8.661 7.453zM40.05 230.251c1.04 1.209 2.711 2.029 5.01 2.46v0l2.995-2.578-4.52-5.252c-0.536 0.016-1.01 0.105-1.42 0.267-0.416 0.166-0.81 0.409-1.181 0.728v0c-0.732 0.63-1.2 1.36-1.403 2.19-0.198 0.825-0.025 1.554 0.519 2.185z" fill="#010c80" data-fill-palette-color="primary"></path><path d="M91.876 269.483l-1.468 0.96-6.423-3.746 6.647-11.397c0.724-1.241 1.037-2.218 0.941-2.933-0.093-0.721-0.637-1.371-1.631-1.951v0c-0.697-0.407-1.458-0.678-2.283-0.815-0.828-0.13-1.928-0.083-3.302 0.143v0l-5.991 10.273 2.353 2.959-1.467 0.96-6.423-3.746 6.647-11.397c0.724-1.241 1.037-2.218 0.941-2.933-0.093-0.721-0.637-1.371-1.632-1.951v0c-0.697-0.407-1.458-0.678-2.283-0.815-0.828-0.13-1.928-0.083-3.301 0.143v0l-5.992 10.273 2.354 2.959-1.467 0.96-9.433-5.502 0.61-1.046 4.39-0.611 5.582-9.57-1.984-3.513 0.61-1.046 7.435 0.532-1.44 4.952 6.687-1.121c0.575 0.09 1.246 0.359 2.012 0.806v0c1.309 0.764 2.186 1.75 2.63 2.958 0.444 1.209 0.416 2.499-0.085 3.87v0l6.55-1.122c0.578 0.1 1.25 0.373 2.016 0.82v0c1.532 0.894 2.473 2.071 2.824 3.532 0.36 1.459 0.073 2.988-0.861 4.589v0l-6.152 10.547z" fill="#010c80" data-fill-palette-color="primary"></path><path d="M123.859 257.465c0.842 0.179 1.534 0.567 2.077 1.163 0.537 0.595 0.899 1.338 1.089 2.231v0l-3.21 2.636-1.447-0.308c0.031-0.656-0.06-1.149-0.274-1.479-0.209-0.322-0.543-0.532-1.003-0.63v0c-0.563-0.12-1.186-0.1-1.87 0.059-0.691 0.164-1.518 0.57-2.481 1.218v0l-2.428 11.409 5.011 2.781-1.093 1.371-12.594-2.679 0.252-1.185 3.978-1.955 2.306-10.836-2.985-2.715 0.252-1.185 7.23-1.831 0.183 4.961 4.844-3.212c0.58-0.086 1.304-0.037 2.172 0.147v0z" fill="#010c80" data-fill-palette-color="primary"></path><path d="M148.599 258.067c1.72-0.061 3.28 0.334 4.681 1.185 1.401 0.851 2.513 2.033 3.335 3.547 0.828 1.507 1.275 3.186 1.341 5.038v0c0.071 2.011-0.477 3.917-1.644 5.72-1.161 1.803-2.642 3.266-4.443 4.39-1.801 1.117-3.562 1.706-5.282 1.767v0c-1.72 0.061-3.28-0.334-4.681-1.185-1.401-0.851-2.516-2.03-3.344-3.536-0.822-1.514-1.266-3.197-1.331-5.049v0c-0.071-2.004 0.474-3.911 1.634-5.72 1.168-1.803 2.652-3.263 4.453-4.38 1.801-1.124 3.561-1.716 5.281-1.777zM146.444 261.432c-2.943 0.105-4.34 2.257-4.191 6.456v0c0.088 2.474 0.694 4.522 1.818 6.144 1.13 1.615 2.687 2.388 4.672 2.317v0c2.943-0.105 4.34-2.27 4.189-6.496v0c-0.087-2.447-0.696-4.482-1.826-6.104-1.124-1.616-2.677-2.388-4.662-2.317z" fill="#010c80" data-fill-palette-color="primary"></path><path d="M199.423 267.305l-2.229 0.036-22.15 7.783-0.401-1.142 2.504-3.953-7.862-22.375-4.294 0.057 0.22-1.739 11.229-3.946 0.402 1.142-2.552 3.969 8.254 23.489 9.525-3.347 2.615-9.925 1.234-0.024z" fill="#010c80" data-fill-palette-color="primary"></path><path d="M211.137 233.731c1.387-1.019 2.898-1.571 4.535-1.657 1.637-0.086 3.221 0.265 4.753 1.053 1.533 0.779 2.848 1.915 3.946 3.408v0c1.191 1.621 1.812 3.506 1.862 5.653 0.056 2.144-0.344 4.187-1.199 6.129-0.859 1.937-1.982 3.416-3.369 4.435v0c-1.387 1.019-2.898 1.571-4.535 1.657-1.637 0.086-3.222-0.26-4.755-1.039-1.532-0.788-2.846-1.929-3.944-3.422v0c-1.187-1.616-1.811-3.498-1.871-5.647-0.051-2.147 0.354-4.19 1.213-6.127 0.856-1.943 1.977-3.424 3.364-4.443zM211.251 237.725c-2.373 1.744-2.315 4.309 0.173 7.696v0c1.466 1.995 3.12 3.346 4.962 4.053 1.844 0.698 3.565 0.46 5.165-0.716v0c2.373-1.744 2.308-4.32-0.197-7.728v0c-1.45-1.973-3.099-3.312-4.946-4.015-1.838-0.702-3.557-0.466-5.157 0.71z" fill="#010c80" data-fill-palette-color="primary"></path><path d="M241.224 204.986l-2.802 3.669c1.273 0.056 2.427 0.479 3.464 1.27v0c0.915 0.699 1.615 1.641 2.101 2.828 0.486 1.195 0.727 2.483 0.723 3.862 0 1.374-0.23 2.706-0.689 3.995v0c0.133 0.993 0.51 1.726 1.131 2.199v0c0.352 0.269 0.889 0.242 1.61-0.081 0.717-0.318 1.696-0.858 2.935-1.619v0c1.708-1.027 3.11-1.756 4.204-2.186 1.1-0.426 2.002-0.37 2.707 0.168v0c0.621 0.474 1.115 1.484 1.483 3.031 0.363 1.543 0.455 3.183 0.278 4.92-0.174 1.733-0.68 3.148-1.52 4.248v0c-0.888 1.163-2.135 2.388-3.742 3.675-1.603 1.282-3.006 2.301-4.208 3.057v0l-4.789-3.656 0.897-1.176c2.318-0.07 4.311-0.422 5.978-1.057 1.667-0.634 3.076-1.706 4.229-3.216v0c0.43-0.563 0.71-1.165 0.841-1.805 0.122-0.64 0.112-1.221-0.029-1.746-0.145-0.519-0.373-0.897-0.683-1.133v0c-0.558-0.426-1.284-0.472-2.179-0.14-0.899 0.338-2.163 0.968-3.791 1.889v0c-1.532 0.895-2.737 1.507-3.613 1.838-0.88 0.335-1.581 0.304-2.102-0.093v0c-0.494-0.378-0.749-1.096-0.764-2.157-0.005-1.062 0.142-2.198 0.442-3.41v0c-0.19 0.38-0.419 0.746-0.688 1.098v0c-0.839 1.099-1.851 1.917-3.035 2.454-1.188 0.542-2.388 0.767-3.599 0.675-1.21-0.083-2.294-0.49-3.252-1.221v0c-1.141-0.871-1.94-2.105-2.395-3.702-0.455-1.596-0.531-3.269-0.227-5.019 0.308-1.755 0.959-3.285 1.955-4.59v0c1.108-1.452 2.498-2.41 4.168-2.875v0l3.729-4.884zM241.345 219.403c0.711-0.931 1.022-1.818 0.932-2.66-0.099-0.841-0.603-1.609-1.513-2.304v0c-1.247-0.952-2.557-1.324-3.932-1.116-1.378 0.213-2.568 0.975-3.568 2.285v0c-0.695 0.91-1.005 1.78-0.931 2.611 0.078 0.825 0.572 1.585 1.481 2.28v0c1.268 0.968 2.594 1.352 3.979 1.151 1.384-0.209 2.567-0.958 3.552-2.247z" fill="#010c80" data-fill-palette-color="primary"></path><path d="M247.216 183.933c0.654-1.591 1.658-2.85 3.011-3.774 1.353-0.925 2.889-1.449 4.608-1.573 1.714-0.132 3.429 0.154 5.142 0.858v0c1.861 0.765 3.371 2.051 4.532 3.86 1.163 1.802 1.884 3.755 2.163 5.859 0.274 2.102 0.083 3.948-0.571 5.539v0c-0.654 1.591-1.658 2.85-3.011 3.775-1.353 0.925-2.887 1.453-4.602 1.586-1.718 0.124-3.434-0.167-5.148-0.872v0c-1.855-0.762-3.366-2.046-4.535-3.85-1.16-1.808-1.877-3.763-2.151-5.864-0.28-2.104-0.093-3.952 0.562-5.544zM249.391 187.285c-1.12 2.724 0.264 4.885 4.15 6.483v0c2.289 0.941 4.405 1.235 6.347 0.881 1.938-0.363 3.284-1.462 4.039-3.299v0c1.12-2.724-0.276-4.89-4.188-6.497v0c-2.265-0.931-4.369-1.217-6.313-0.857-1.935 0.356-3.281 1.453-4.035 3.289z" fill="#010c80" data-fill-palette-color="primary"></path><path d="M11.928 143.75c0-1.95 1.58-3.53 3.53-3.53 1.95 0 3.53 1.58 3.53 3.53 0 1.95-1.58 3.53-3.53 3.53-1.95 0-3.53-1.58-3.53-3.53z" fill="#010c80" data-fill-palette-color="primary"></path><path d="M261.846 143.75c0-1.95 1.58-3.53 3.53-3.53 1.95 0 3.53 1.58 3.53 3.53 0 1.95-1.58 3.53-3.53 3.53-1.95 0-3.53-1.58-3.53-3.53z" fill="#010c80" data-fill-palette-color="primary"></path></g></svg></g></svg></g></svg></g><g></g></svg></g><defs></defs></svg><rect width="279.72" height="279.72" fill="none" stroke="none" visibility="hidden"></rect></g></svg></g></svg>